<svg xmlns="http://www.w3.org/2000/svg" width="160" height="235" viewBox="0 0 160 235"><g transform="translate(-92 -130)"><g transform="translate(117 156)" fill="#fff" stroke="#707070" stroke-width="5"><circle cx="13" cy="13" r="13" stroke="none"/><circle cx="13" cy="13" r="10.5" fill="none"/></g><g transform="translate(201 206)" fill="#fff" stroke="#707070" stroke-width="5"><circle cx="13" cy="13" r="13" stroke="none"/><circle cx="13" cy="13" r="10.5" fill="none"/></g><g transform="translate(159 130)" fill="#fff" stroke="#707070" stroke-width="5"><circle cx="13" cy="13" r="13" stroke="none"/><circle cx="13" cy="13" r="10.5" fill="none"/></g><g transform="translate(199 156)" fill="#fff" stroke="#707070" stroke-width="5"><circle cx="13" cy="13" r="13" stroke="none"/><circle cx="13" cy="13" r="10.5" fill="none"/></g><g transform="translate(117 206)" fill="#fff" stroke="#707070" stroke-width="5"><circle cx="13" cy="13" r="13" stroke="none"/><circle cx="13" cy="13" r="10.5" fill="none"/></g><g transform="translate(159 231)" fill="#fff" stroke="#707070" stroke-width="5"><circle cx="13" cy="13" r="13" stroke="none"/><circle cx="13" cy="13" r="10.5" fill="none"/></g><g transform="translate(-12 -17)"><circle cx="6.5" cy="6.5" r="6.5" transform="translate(166 185)" fill="#52c8fa"/><circle cx="6.5" cy="6.5" r="6.5" transform="translate(189.4 185)" fill="#52c8fa"/><circle cx="6.5" cy="6.5" r="6.5" transform="translate(155 204)" fill="#52c8fa"/><circle cx="6.5" cy="6.5" r="6.5" transform="translate(200.4 204)" fill="#52c8fa"/><circle cx="6.5" cy="6.5" r="6.5" transform="matrix(0.996, 0.087, -0.087, 0.996, 189.791, 221.458)" fill="#52c8fa"/><circle cx="6.5" cy="6.5" r="6.5" transform="translate(165.9 222)" fill="#52c8fa"/></g><g transform="translate(0 -15)"><text transform="translate(172 311)" fill="#52c8fa" font-size="48" font-family="SegoeUI-Light, Segoe UI" font-weight="300" letter-spacing="0.025em"><tspan x="-63.525" y="0">Medic</tspan></text><text transform="translate(172 364)" fill="#52c8fa" font-size="65" font-family="SegoeUIBlack, Segoe UI" letter-spacing="0.025em"><tspan x="-79.085" y="0">Here</tspan></text></g></g></svg>